<svg width="50" height="72" viewBox="0 0 50 72" fill="none" xmlns="http://www.w3.org/2000/svg">
<path d="M31.125 13.2812C29.25 13.2812 27.6354 12.6562 26.2812 11.4062C25.0312 10.0521 24.4062 8.48958 24.4062 6.71875C24.4062 4.84375 25.0312 3.28125 26.2812 2.03125C27.6354 0.677083 29.25 0 31.125 0C33 0 34.5625 0.677083 35.8125 2.03125C37.1667 3.28125 37.8438 4.84375 37.8438 6.71875C37.8438 8.48958 37.1667 10.0521 35.8125 11.4062C34.5625 12.6562 33 13.2812 31.125 13.2812ZM44.4062 30.9375V25H49.4062V71.7188H44.4062V37.8125C41.8021 37.2917 39.3542 36.3542 37.0625 35C34.7708 33.5417 32.7917 31.875 31.125 30L29.0938 40L36.125 46.7188V71.7188H29.4062V51.7188L22.5312 45L16.4375 71.7188H9.40625C9.40625 71.7188 9.5625 70.8333 9.875 69.0625C10.2917 67.2917 10.7604 64.9479 11.2812 62.0312C11.9062 59.0104 12.5833 55.7292 13.3125 52.1875C14.0417 48.6458 14.7188 45.1042 15.3438 41.5625C16.0729 37.9167 16.75 34.5312 17.375 31.4062C18 28.2812 18.5208 25.6771 18.9375 23.5938C19.3542 21.5104 19.6146 20.2604 19.7188 19.8438C20.0312 18.2812 20.7604 17.0833 21.9062 16.25C23.1562 15.4167 24.4062 15 25.6562 15C26.9062 15 28.0521 15.3125 29.0938 15.9375C30.2396 16.4583 31.125 17.2396 31.75 18.2812L35.1875 23.5938C36.125 25.3646 37.375 26.875 38.9375 28.125C40.6042 29.375 42.4271 30.3125 44.4062 30.9375ZM10.9688 38.75L15.3438 15.9375L11.5938 15.1562C9.71875 14.7396 8 15.0521 6.4375 16.0938C4.97917 17.1354 4.09375 18.5938 3.78125 20.4688L1.125 33.4375C1.02083 34.375 1.22917 35.2604 1.75 36.0938C2.27083 36.8229 2.94792 37.2396 3.78125 37.3438L10.9688 38.75Z" fill="#8C8C8C"/>
</svg>
