<svg width="74" height="74" viewBox="0 0 74 74" fill="none" xmlns="http://www.w3.org/2000/svg">
<path d="M30.1562 66.8438V60.2812C28.3854 60.2812 26.8229 59.6562 25.4688 58.4062C24.2188 57.0521 23.5938 55.4896 23.5938 53.7188V50.2812L7.5 34.3438C7.08333 36.0104 6.875 37.9896 6.875 40.2812C6.875 47.0521 9.11458 52.9896 13.5938 58.0938C18.0729 63.0938 23.5938 66.0104 30.1562 66.8438ZM60 37H66.7188C66.8229 37.7292 66.875 38.8229 66.875 40.2812C66.875 49.5521 63.5938 57.4688 57.0312 64.0312C50.5729 70.4896 42.7604 73.7188 33.5938 73.7188C24.3229 73.7188 16.4062 70.4896 9.84375 64.0312C3.38542 57.4688 0.15625 49.5521 0.15625 40.2812C0.15625 31.1146 3.38542 23.3021 9.84375 16.8438C16.4062 10.2812 24.3229 7 33.5938 7C36.8229 7 40.1562 7.52083 43.5938 8.5625V17C43.5938 18.7708 42.9167 20.3333 41.5625 21.6875C40.2083 23.0417 38.6458 23.7188 36.875 23.7188H30.1562V30.2812C30.1562 31.2188 29.8438 32.0521 29.2188 32.7812C28.5938 33.4062 27.8125 33.7188 26.875 33.7188H20.1562V40.2812H40.1562C41.0938 40.2812 41.875 40.6458 42.5 41.375C43.2292 42 43.5938 42.7812 43.5938 43.7188V53.7188H46.875C50.1042 53.7188 52.2396 55.2292 53.2812 58.25C57.8646 53.3542 60.1562 47.3646 60.1562 40.2812C60.1562 38.8229 60.1042 37.7292 60 37ZM67.5 10.2812V8.71875C67.5 7.15625 66.9271 5.80208 65.7812 4.65625C64.7396 3.51042 63.4375 2.9375 61.875 2.9375C60.3125 2.9375 58.9583 3.51042 57.8125 4.65625C56.7708 5.80208 56.25 7.15625 56.25 8.71875V10.2812H67.5ZM70.1562 10.2812C71.0938 10.2812 71.875 10.6458 72.5 11.375C73.2292 12 73.5938 12.7812 73.5938 13.7188V27C73.5938 27.9375 73.2292 28.7188 72.5 29.3438C71.875 29.9688 71.0938 30.2812 70.1562 30.2812H53.5938C52.6562 30.2812 51.8229 29.9688 51.0938 29.3438C50.4688 28.7188 50.1562 27.9375 50.1562 27V13.7188C50.1562 12.7812 50.4688 12 51.0938 11.375C51.8229 10.6458 52.6562 10.2812 53.5938 10.2812V8.71875C53.5938 6.42708 54.375 4.44792 55.9375 2.78125C57.6042 1.11458 59.5833 0.28125 61.875 0.28125C64.1667 0.28125 66.0938 1.11458 67.6562 2.78125C69.3229 4.44792 70.1562 6.42708 70.1562 8.71875V10.2812Z" fill="#8C8C8C"/>
</svg>
