<svg width="75" height="48" viewBox="0 0 75 48" fill="none" xmlns="http://www.w3.org/2000/svg">
<path d="M47.625 20.7188H64.3438L50.9062 7.28125H47.625V20.7188ZM52.3125 40.875C53.3542 41.8125 54.5521 42.2812 55.9062 42.2812C57.2604 42.2812 58.4062 41.8125 59.3438 40.875C60.3854 39.8333 60.9062 38.6354 60.9062 37.2812C60.9062 35.9271 60.3854 34.7812 59.3438 33.8438C58.4062 32.8021 57.2604 32.2812 55.9062 32.2812C54.5521 32.2812 53.3542 32.8021 52.3125 33.8438C51.375 34.7812 50.9062 35.9271 50.9062 37.2812C50.9062 38.6354 51.375 39.8333 52.3125 40.875ZM40.9062 20.7188V7.28125H27.625V20.7188H40.9062ZM14.0312 40.875C14.9688 41.8125 16.1667 42.2812 17.625 42.2812C19.0833 42.2812 20.2812 41.8125 21.2188 40.875C22.1562 39.8333 22.625 38.6354 22.625 37.2812C22.625 35.9271 22.1562 34.7812 21.2188 33.8438C20.2812 32.8021 19.0833 32.2812 17.625 32.2812C16.1667 32.2812 14.9688 32.8021 14.0312 33.8438C13.0938 34.7812 12.625 35.9271 12.625 37.2812C12.625 38.6354 13.0938 39.8333 14.0312 40.875ZM7.625 20.7188H20.9062V7.28125H7.625V20.7188ZM54.3438 0.71875L74.3438 20.7188V37.2812H65.9062C65.9062 39.9896 64.9167 42.3333 62.9375 44.3125C60.9583 46.2917 58.6146 47.2812 55.9062 47.2812C53.1979 47.2812 50.8542 46.2917 48.875 44.3125C46.8958 42.3333 45.9062 39.9896 45.9062 37.2812H27.625C27.625 39.9896 26.6354 42.3333 24.6562 44.3125C22.6771 46.2917 20.3333 47.2812 17.625 47.2812C14.9167 47.2812 12.5729 46.2917 10.5938 44.3125C8.61458 42.3333 7.625 39.9896 7.625 37.2812H0.90625V7.28125C0.90625 5.40625 1.53125 3.84375 2.78125 2.59375C4.13542 1.34375 5.75 0.71875 7.625 0.71875H54.3438Z" fill="#8C8C8C"/>
</svg>
